HIERARCHY
ROOT Model_Hips
{
	OFFSET 0.000000 96.915077 0.000000
	CHANNELS 6 Xposition Yposition Zposition Xrotation Yrotation Zrotation
	JOINT Model_Spine
	{
		OFFSET 0.000000 11.137703 -1.289900
		CHANNELS 3 Xrotation Yrotation Zrotation
		JOINT Model_Spine1
		{
			OFFSET 0.000000 12.993942 -1.504922
			CHANNELS 3 Xrotation Yrotation Zrotation
			JOINT Model_Spine2
			{
				OFFSET 0.000000 14.850220 -1.719911
				CHANNELS 3 Xrotation Yrotation Zrotation
				JOINT Model_Neck
				{
					OFFSET 0.000000 16.706543 -1.934903
					CHANNELS 3 Xrotation Yrotation Zrotation
					JOINT Model_Head
					{
						OFFSET 0.000000 10.471298 2.002100
						CHANNELS 3 Xrotation Yrotation Zrotation
						JOINT Model_HeadTop_End
						{
							OFFSET 0.000000 20.842606 3.985100
							CHANNELS 3 Xrotation Yrotation Zrotation
							End Site
							{
								OFFSET 0.000000 21.220154 0.000000
							}
						}
					}
				}
				JOINT Model_LeftShoulder
				{
					OFFSET 7.008500 14.768600 -1.919946
					CHANNELS 3 Xrotation Yrotation Zrotation
					JOINT Model_LeftArm
					{
						OFFSET 14.126271 -3.718048 0.029937
						CHANNELS 3 Xrotation Yrotation Zrotation
						JOINT Model_LeftForeArm
						{
							OFFSET 28.282801 0.000000 0.000000
							CHANNELS 3 Xrotation Yrotation Zrotation
							JOINT Model_LeftHand
							{
								OFFSET 26.204689 0.000000 0.000000
								CHANNELS 3 Xrotation Yrotation Zrotation
								End Site
								{
									OFFSET 26.204704 0.000000 0.000000
								}
							}
						}
					}
				}
				JOINT Model_RightShoulder
				{
					OFFSET -7.008500 14.768555 -1.949840
					CHANNELS 3 Xrotation Yrotation Zrotation
					JOINT Model_RightArm
					{
						OFFSET -14.126281 -3.718018 -0.029932
						CHANNELS 3 Xrotation Yrotation Zrotation
						JOINT Model_RightForeArm
						{
							OFFSET -28.283798 0.000000 -0.000001
							CHANNELS 3 Xrotation Yrotation Zrotation
							JOINT Model_RightHand
							{
								OFFSET -26.204193 0.000000 -0.000001
								CHANNELS 3 Xrotation Yrotation Zrotation
								End Site
								{
									OFFSET -26.204208 0.000000 -0.000001
								}
							}
						}
					}
				}
			}
		}
	}
	JOINT Model_LeftUpLeg
	{
		OFFSET 8.327700 -6.193199 -0.402800
		CHANNELS 3 Xrotation Yrotation Zrotation
		JOINT Model_LeftLeg
		{
			OFFSET 0.735802 -42.108742 -0.610721
			CHANNELS 3 Xrotation Yrotation Zrotation
			JOINT Model_LeftFoot
			{
				OFFSET -0.735806 -36.833748 -0.172876
				CHANNELS 3 Xrotation Yrotation Zrotation
				JOINT Model_LeftToeBase
				{
					OFFSET -0.565857 -11.977769 16.297714
					CHANNELS 3 Xrotation Yrotation Zrotation
					JOINT Model_LeftToe_End
					{
						OFFSET -0.111712 -0.312793 7.857784
						CHANNELS 3 Xrotation Yrotation Zrotation
						End Site
						{
							OFFSET -0.111712 -0.312793 7.857784
						}
					}
				}
			}
		}
	}
	JOINT Model_RightUpLeg
	{
		OFFSET -8.327700 -6.193199 -0.516500
		CHANNELS 3 Xrotation Yrotation Zrotation
		JOINT Model_RightLeg
		{
			OFFSET -0.735785 -42.108738 -0.434061
			CHANNELS 3 Xrotation Yrotation Zrotation
			JOINT Model_RightFoot
			{
				OFFSET 0.735776 -36.833748 -0.021630
				CHANNELS 3 Xrotation Yrotation Zrotation
				JOINT Model_RightToeBase
				{
					OFFSET 0.565817 -11.977745 15.903093
					CHANNELS 3 Xrotation Yrotation Zrotation
					JOINT Model_RightToe_End
					{
						OFFSET 0.111702 -0.312791 7.811342
						CHANNELS 3 Xrotation Yrotation Zrotation
						End Site
						{
							OFFSET 0.111702 -0.312791 7.811342
						}
					}
				}
			}
		}
	}
}
MOTION
Frames: 6
Frame Time: 0.016667
-0.180995 95.911819 0.730175 1.018708 2.685136 -1.544073 0.192949 0.358674 0.271279 0.384979 0.692415 0.496923 0.384980 0.692417 0.496922 -0.000368 -0.152066 -0.402849 -0.000368 -0.152064 -0.402849 -0.000000 -0.000000 0.000000 0.546341 -14.779645 -16.719021 -6.085804 6.471306 -50.651392 18.149218 -31.939064 -5.078736 -0.000001 -0.000000 0.000000 1.417832 7.418189 17.752881 0.623265 -19.220125 55.031056 11.687466 24.821872 10.776468 -0.000001 -0.000000 -0.000000 -25.006651 5.989973 6.636596 65.154643 -1.016423 0.780052 -3.439893 0.473090 -1.302322 -11.409930 -1.753240 -0.604558 0.000002 -0.000002 0.000001 -9.844008 -8.677344 2.854030 20.714485 7.925671 -0.007962 -11.239923 0.604509 -4.541475 -4.894232 -0.667435 0.583832 0.000000 0.000000 0.000000 
-0.230484 96.002373 2.249259 0.853372 1.260941 -1.410267 0.200754 0.449754 0.170071 0.400593 0.891121 0.317702 0.400593 0.891122 0.317701 0.057513 -0.125663 -0.379932 0.057521 -0.125664 -0.379933 0.000000 -0.000000 0.000000 0.574387 -14.638895 -16.600860 -4.908280 7.829154 -50.973541 17.774553 -32.468510 -4.970143 0.000002 -0.000001 0.000000 1.448443 7.790877 17.267490 0.697856 -18.313923 55.538645 11.409961 27.539478 10.398587 -0.000001 -0.000000 -0.000000 -27.029977 5.684001 5.911306 62.562511 -1.384803 0.702353 -5.245224 0.588509 -2.225277 -8.540959 -0.661570 0.742735 0.000000 -0.000001 0.000000 -9.146648 -8.550488 2.490580 21.406977 9.548931 0.334172 -11.558218 0.573859 -4.758881 -5.380359 -0.561158 0.500924 0.000000 0.000000 0.000000 
-0.245181 96.045044 3.729204 0.804974 -0.234396 -1.245971 0.183675 0.547756 0.061077 0.366672 1.104975 0.125632 0.366672 1.104975 0.125633 0.086081 -0.089517 -0.380187 0.086089 -0.089518 -0.380188 -0.000000 0.000000 -0.000000 0.592392 -14.512345 -16.537387 -3.730649 9.080564 -51.161805 17.699428 -33.288221 -4.701828 -0.000001 -0.000002 0.000000 1.482195 8.086674 16.813673 1.093893 -17.517635 55.846137 11.409200 31.084427 9.897851 0.000002 0.000000 0.000000 -28.873768 5.038887 5.014342 59.036986 -1.979211 0.902544 -6.546954 0.707703 -3.048207 -4.751482 0.548913 1.000622 -0.000002 0.000001 -0.000000 -8.829466 -8.429430 2.031888 22.519275 11.127981 0.693124 -12.083773 0.640030 -5.357657 -5.977063 -0.431941 0.402242 0.000001 0.000000 0.000000 
-0.215049 96.027344 5.172900 0.797697 -1.823777 -1.073911 0.158275 0.663763 -0.046909 0.316425 1.358007 -0.066443 0.316422 1.358006 -0.066443 0.078455 -0.045730 -0.400552 0.078472 -0.045730 -0.400556 -0.000000 -0.000000 -0.000000 0.608944 -14.376660 -16.485923 -2.612853 10.177162 -51.268988 17.939056 -34.222970 -4.305522 -0.000000 -0.000003 0.000001 1.514328 8.266014 16.443018 1.785790 -16.880225 55.925152 11.769772 35.347038 9.150145 0.000000 -0.000001 -0.000000 -30.483790 4.101193 4.022513 54.770802 -2.957841 1.445906 -6.929977 0.784649 -3.616013 -3.388582 1.023440 -1.342580 -0.000002 0.000000 0.000000 -8.824323 -8.296361 1.468346 24.017812 12.729841 1.058194 -12.671532 0.708195 -6.006508 -6.647237 -0.290253 0.296859 0.000000 -0.000000 0.000000 
-0.152638 95.920105 6.601349 0.735174 -3.576880 -0.929693 0.144858 0.803653 -0.147803 0.290345 1.663354 -0.242732 0.290345 1.663353 -0.242732 0.036025 0.007458 -0.431447 0.036025 0.007459 -0.431447 0.000000 -0.000000 -0.000000 0.634158 -14.193125 -16.396733 -1.629505 11.105008 -51.359232 18.317078 -35.015508 -3.900376 -0.000001 0.000000 0.000001 1.540987 8.346747 16.169428 2.679997 -16.405114 55.825339 12.414013 39.991608 8.154677 -0.000000 -0.000002 0.000001 -31.823234 2.989007 3.161095 50.213386 -5.085191 2.246999 -6.324533 0.821198 -4.132397 -4.530374 0.581294 -1.174062 -0.000000 0.000000 -0.000001 -9.110582 -8.086149 0.870612 26.112428 14.352939 1.368386 -13.382315 0.812770 -6.724465 -7.342393 -0.196629 0.234806 -0.000000 -0.000000 0.000000 
-0.065600 95.687263 8.046105 0.567625 -5.587765 -0.826114 0.151574 0.969998 -0.241582 0.304679 2.027010 -0.400584 0.304678 2.027011 -0.400585 -0.034355 -0.047275 -0.466172 -0.034355 -0.047275 -0.466173 -0.000000 0.000000 -0.000000 0.675410 -13.930396 -16.231895 -0.815502 11.904665 -51.468440 18.584535 -35.515812 -3.611179 -0.000001 -0.000001 0.000000 1.562307 8.389885 15.961071 3.619918 -16.038491 55.661971 13.062774 44.528821 7.123754 0.000001 -0.000000 -0.000001 -32.951759 1.842295 2.659813 46.088447 -9.393311 3.098435 -5.013717 0.860369 -5.070861 -5.829892 -0.257155 -0.750140 0.000001 0.000000 -0.000000 -9.619130 -7.699357 0.296036 28.849930 16.023052 1.540868 -14.293486 0.954735 -7.508684 -8.004717 -0.208693 0.260706 0.000000 0.000000 0.000000 
